<?xml version="1.0" encoding="utf-8"?>
<!-- Generator: Adobe Illustrator 26.0.2, SVG Export Plug-In . SVG Version: 6.00 Build 0)  -->
<svg version="1.1" id="behance" xmlns="http://www.w3.org/2000/svg" xmlns:xlink="http://www.w3.org/1999/xlink" x="0px" y="0px"
	 viewBox="0 0 500 500" style="enable-background:new 0 0 500 500;" xml:space="preserve">
<style type="text/css">
	.st0{fill-rule:evenodd;clip-rule:evenodd;fill:#C5C6C6;}
</style>
<g>
	<path id="XMLID_2095_" class="st0" d="M62.7,265.5h77.7c17.4,0,47.1,7.6,47.1,40.6c0,17.4-13.7,37.6-30.8,37.6h-94V265.5z
		 M312.8,109.4h140.1V156H312.8V109.4z M434.2,265.5H331.5c3.2-27.6,24.2-46.3,51.6-46.3C410.2,219.2,430.2,238.2,434.2,265.5
		L434.2,265.5z M328.1,296.6H500c0-2.4,0-5.3,0-7.6c0-64.5-46.6-117.2-116.9-117.2c-70.8,0-117.2,52.7-117.2,117.2
		c0,65,46.4,117.2,117.2,117.2c70.3,0,104-40.3,114.5-94h-63.5c-5.5,27.6-21.9,47.1-51.1,47.1C353.4,359.3,330.7,331.6,328.1,296.6
		L328.1,296.6z M250.4,312.1c0-33.7-22.7-62.9-53.2-73.5c22.1-14,37.1-38.7,37.1-66.9c0-42.9-35-77.9-77.7-77.9H0v312.3h156.7
		C207.7,406.1,250.4,364.3,250.4,312.1L250.4,312.1z M140.3,219.2H62.7V156h77.7c17.4,0,31.6,14.2,31.6,31.9
		C172,205,157.7,219.2,140.3,219.2L140.3,219.2z"/>
</g>
</svg>
