<?xml version="1.0" encoding="utf-8"?>
<!-- Generator: Adobe Illustrator 26.0.2, SVG Export Plug-In . SVG Version: 6.00 Build 0)  -->
<svg version="1.1" id="behance" xmlns="http://www.w3.org/2000/svg" xmlns:xlink="http://www.w3.org/1999/xlink" x="0px" y="0px"
	 viewBox="0 0 500 500" style="enable-background:new 0 0 500 500;" xml:space="preserve">
<style type="text/css">
	.st0{fill:#C5C6C6;}
</style>
<g>
	<path class="st0" d="M411.1,0c0,27.8,0.1,55.6-0.1,83.5c0,2.8-0.8,5.8-2.2,8.2c-37.1,65.5-74.3,130.9-111.5,196.3
		c-1,1.7-1.8,3.4-3.1,5.7c39.1,0,77.7,0,116.6,0c0,29.5,0,58.6,0,88.1c-2,0-3.9,0-5.8,0c-50.9,0-101.9,0-152.8-0.1
		c-4,0-6.3,1.1-8.4,4.7c-21.4,36.6-43.1,73.1-64.6,109.6c-1.7,2.9-3.4,4-6.8,4c-26.2-0.2-52.4-0.1-78.6-0.1c-1.4,0-2.9,0-4.8,0
		c0-2.1,0-3.8,0-5.6c0-25.9-0.1-51.7,0.1-77.6c0-2.9,0.8-6.1,2.3-8.7c37.2-65.6,74.5-131.1,111.8-196.7c0.9-1.5,1.6-3.1,2.8-5.3
		c-39.2,0-77.8,0-116.7,0c0-29.4,0-58.3,0-87.9c1.9,0,3.7,0,5.6,0c51.1,0,102.2-0.1,153.3,0.1c4.2,0,6.2-1.4,8.3-4.9
		C278.5,75.5,300.9,37.8,323.2,0C352.5,0,381.8,0,411.1,0z"/>
</g>
</svg>
