<?xml version="1.0" encoding="utf-8"?>
<!-- Generator: Adobe Illustrator 26.0.2, SVG Export Plug-In . SVG Version: 6.00 Build 0)  -->
<svg version="1.1" id="instagram" xmlns="http://www.w3.org/2000/svg" xmlns:xlink="http://www.w3.org/1999/xlink" x="0px" y="0px"
	 viewBox="0 0 500 500" style="enable-background:new 0 0 500 500;" xml:space="preserve">
<style type="text/css">
	.st0{fill:#C5C6C6;}
</style>
<g id="XMLID_00000031909385675977831070000013782176226303856284_">
	<path id="XMLID_00000097474683839767303180000007900776327447176894_" class="st0" d="M372.9,0H127.1C57,0,0,57,0,127.1v245.9
		C0,443,57,500,127.1,500h245.9C443,500,500,443,500,372.9V127.1C500,57,443,0,372.9,0z M252.5,401.7c-83.6,0-151.7-68-151.7-151.7
		c0-83.6,68-151.7,151.7-151.7c83.6,0,151.7,68,151.7,151.7C404.2,333.6,336.2,401.7,252.5,401.7z M413.1,124.2
		c-19.9,0-36.1-16.2-36.1-36.1S393.1,52,413.1,52s36.1,16.2,36.1,36.1S433,124.2,413.1,124.2z"/>
	<path id="XMLID_00000149356222622419219930000012690461073590615942_" class="st0" d="M252.5,152.8c-53.6,0-97.2,43.6-97.2,97.2
		c0,53.6,43.6,97.2,97.2,97.2s97.2-43.6,97.2-97.2C349.7,196.4,306.1,152.8,252.5,152.8z"/>
</g>
</svg>
