<?xml version="1.0" encoding="utf-8"?>
<!-- Generator: Adobe Illustrator 26.0.2, SVG Export Plug-In . SVG Version: 6.00 Build 0)  -->
<svg version="1.1" id="linkedin" xmlns="http://www.w3.org/2000/svg" xmlns:xlink="http://www.w3.org/1999/xlink" x="0px" y="0px"
	 viewBox="0 0 500 500" style="enable-background:new 0 0 500 500;" xml:space="preserve">
<style type="text/css">
	.st0{fill-rule:evenodd;clip-rule:evenodd;fill:#C5C6C6;}
</style>
<path id="XMLID_2669_" class="st0" d="M0,255.2V500h116.6V235.3v-68.7H0V255.2z M497.2,269c-7.7-63.2-36.5-102.5-121.8-102.5
	c-50,0-83.7,18.4-97.8,45.1h-1.5v-45.1h-93v64.1V500h97.2V334.7c0-43.6,8.6-85.6,62-85.6c53.7,0,57.6,49.7,57.6,88.6V500h100V316.9
	C500,299.7,499.1,283.7,497.2,269L497.2,269z M58.3,0C26.1,0,0,26.1,0,58.3s26.1,58.3,58.3,58.3c32.2,0,58.3-26.1,58.3-58.3
	S90.5,0,58.3,0L58.3,0z"/>
</svg>
