<?xml version="1.0" encoding="utf-8"?>
<!-- Generator: Adobe Illustrator 26.0.2, SVG Export Plug-In . SVG Version: 6.00 Build 0)  -->
<svg version="1.1" id="Calque_1" xmlns="http://www.w3.org/2000/svg" xmlns:xlink="http://www.w3.org/1999/xlink" x="0px" y="0px"
	 viewBox="0 0 500 500" style="enable-background:new 0 0 500 500;" xml:space="preserve">
<style type="text/css">
	.st0{fill:#FC5656;}
</style>
<g>
	<path class="st0" d="M427.9,72.1c-37.7-37.7-78.1-13.3-103.3,11.9L86.2,322.4C61,347.6,34.6,386,74.3,425.7
		c39.7,39.7,78.1,13.3,103.3-11.9L416,175.4C441.2,150.2,465.6,109.9,427.9,72.1z"/>
	<path class="st0" d="M200.2,62.4l50.5,50.5L302,61.5c3.5-3.5,7-6.7,10.6-9.8C307.2,24.5,291.7,0,250.6,0c-41.2,0-56.7,24.6-62,51.8
		C192.4,55.2,196.3,58.5,200.2,62.4z"/>
	<path class="st0" d="M302,437.3l-51.3-51.3l-50.4,50.4c-3.8,3.8-7.6,7.3-11.4,10.6c5.8,27.7,22.2,53,61.9,53
		c39.8,0,56.2-25.5,61.9-53.2C309,443.7,305.5,440.7,302,437.3z"/>
	<path class="st0" d="M178.8,184.7H81.5C45.8,184.7,0,196,0,249.3c0,39.8,25.5,56.2,53.3,61.9C56.5,307.5,178.8,184.7,178.8,184.7z"
		/>
	<path class="st0" d="M448.2,187.3c-3.1,3.6-125.6,126.6-125.6,126.6h95.9c35.7,0,81.5-8.4,81.5-64.6
		C500,208.1,475.4,192.7,448.2,187.3z"/>
	<path class="st0" d="M210.6,152.8l17.4-17.4L177.6,85C152.4,59.7,114,33.3,74.3,73c-29.1,29.1-22.7,57.5-7.2,80.5
		C71.8,153.2,210.6,152.8,210.6,152.8z"/>
	<path class="st0" d="M290.6,345.9l-17.4,17.4l51.4,51.4c25.2,25.2,65.5,49.7,103.3,11.9c28.2-28.2,21.7-57.7,6.1-81.4
		C429,345.5,290.6,345.9,290.6,345.9z"/>
</g>
</svg>
