<?xml version="1.0" encoding="utf-8"?>
<!-- Generator: Adobe Illustrator 26.0.2, SVG Export Plug-In . SVG Version: 6.00 Build 0)  -->
<svg version="1.1" id="behance" xmlns="http://www.w3.org/2000/svg" xmlns:xlink="http://www.w3.org/1999/xlink" x="0px" y="0px"
	 viewBox="0 0 500 500" style="enable-background:new 0 0 500 500;" xml:space="preserve">
<g>
	<path d="M491.2,17.7C483,5.4,470.4,0,455.8-0.5c-1,0-2,0-2.9,0c-135.3,0-270.5,0-405.8,0C28-0.5,13.5,7.1,4.6,24.4
		C0.9,31.5,0,39.2,0,47.1C0,182,0,316.9,0,451.9c0,3.2,0.2,6.5,0.7,9.7c2.4,18.9,17.1,34,36.1,37.1c0.8,0.1,1.5,0.5,2.3,0.8
		c140.6,0,281.2,0,421.9,0c8.2-1.9,16.2-4.4,22.8-10c8.4-7.1,13.6-15.9,15.5-26.7c0.1-0.8,0.5-1.5,0.8-2.3c0-140.6,0-281.2,0-421.9
		C497.1,31.6,495.3,23.9,491.2,17.7z M202.3,263.2c-4.7,0.6-9.4,0.9-14.1,0.9c-23.1,0.1-46.2,0-70,0c0,2.3,0,4.1,0,5.9
		c0,31.7,0,63.5,0,95.2c0,11.5-9.4,18.8-19.4,15.2c-5.9-2.1-9.1-6.6-9.8-12.8c-0.2-1.6-0.1-3.3-0.1-4.9c0-75.5,0-151,0-226.5
		c0-13.4,5.1-18.5,18.6-18.5c27.8,0,55.7-0.1,83.5,0c35.6,0.2,64.5,23.7,72.1,58.4C272,216.4,243.2,257.8,202.3,263.2z M408.7,228.1
		c-3.1,4.7-7.7,6.8-13.3,6.7c-12.5,0-25.1,0-37.6,0c-1.6,0-3.2,0-5.3,0c0,2.2,0,3.9,0,5.7c0,40.7,0,81.4,0,122c0,2,0.1,3.9-0.1,5.9
		c-0.9,7.5-7.4,13-14.8,12.9c-7.2-0.1-13.4-5.6-14.2-12.9c-0.2-1.9-0.1-3.9-0.1-5.9c0-40.4,0-80.7,0-121.1c0-1.9,0-3.9,0-6.6
		c-4.5,0-8.8,0-13.1,0c-9.5-0.1-16.1-6-16.2-14.5c-0.1-8.5,6.5-14.6,16-14.7c4.2-0.1,8.4,0,13.3,0c0-3.1,0-6,0-8.9
		c0.1-13.2-0.7-26.4,0.6-39.5c2.3-23.2,19.9-38.8,43.3-39.5c9.6-0.3,19.2-0.2,28.8,0c8.7,0.1,15.1,6.4,15.1,14.6
		c0,8.2-6.3,14.5-15.1,14.6c-9.1,0.1-18.2,0-27.3,0.1c-10.2,0.1-16.1,5.9-16.1,16.1c-0.1,14,0,27.9,0,42.5c15,0,29.3,0,43.6,0
		c5.8,0,10.4,2.6,13.2,7.7C412,218.3,411.8,223.4,408.7,228.1z"/>
	<path d="M189.9,147c-22.6-0.1-45.2,0-67.8,0c-1.2,0-2.5,0.2-3.7,0.3c0,29.2,0,58.1,0,87.5c25,0,49.4,0.6,73.7-0.2
		c30.9-1,50-29.3,40.4-58.7C226.9,158.8,209.9,147.1,189.9,147z"/>
</g>
</svg>
