<?xml version="1.0" encoding="utf-8"?>
<!-- Generator: Adobe Illustrator 26.0.2, SVG Export Plug-In . SVG Version: 6.00 Build 0)  -->
<svg version="1.1" id="twitch" xmlns="http://www.w3.org/2000/svg" xmlns:xlink="http://www.w3.org/1999/xlink" x="0px" y="0px"
	 viewBox="0 0 500 500" style="enable-background:new 0 0 500 500;" xml:space="preserve">
<style type="text/css">
	.st0{fill:#C5C6C6;}
	.st1{fill-rule:evenodd;clip-rule:evenodd;fill:#C5C6C6;}
</style>
<g id="XMLID_397_">
	<path id="XMLID_398_" class="st0" d="M497.3,93.9c-15.8,7.2-33.7,11.5-50.7,14.4c8.1-1.4,19.9-16,24.6-22
		c7.3-9.1,13.3-19.4,16.7-30.5c0.4-0.9,0.7-2-0.2-2.6c-1.1-0.4-1.8-0.2-2.7,0.2c-19,10.2-38.8,17.6-59.8,22.9c-1.7,0.4-3,0-4.1-1.1
		c-1.7-2-3.4-3.8-5.2-5.3c-8.8-7.5-18.3-13.4-29-17.8c-14-5.7-29.3-8.1-44.4-7.2c-14.7,1-29.1,5.1-42.2,11.9s-24.7,16.3-34,27.8
		c-9.6,11.8-16.7,25.8-20.3,40.7c-3.5,14.3-3.2,28.5-1.1,42.9c0.3,2.4,0.1,2.7-2.1,2.4C160.7,158.4,92.6,129,37.4,66.1
		c-2.4-2.7-3.7-2.7-5.7,0.2c-24.2,36.3-12.5,94.5,17.8,123.1c4,3.8,8.2,7.6,12.6,11.1c-1.6,0.3-21.7-1.8-39.7-11.1
		c-2.4-1.5-3.6-0.6-3.8,2.1c-0.2,3.9,0.1,7.5,0.6,11.8c4.6,36.7,30.1,70.7,64.9,84c4.1,1.7,8.7,3.3,13.2,4c-7.9,1.7-16.1,3-38.9,1.2
		c-2.8-0.5-3.9,0.9-2.8,3.6c17.1,46.6,54.1,60.5,81.7,68.4c3.7,0.6,7.4,0.6,11.1,1.5c-0.2,0.3-0.4,0.3-0.7,0.7
		c-9.2,14-41,24.4-55.8,29.6C65,405.7,35.6,410,7.1,407.1c-4.6-0.7-5.5-0.6-6.8,0c-1.3,0.8-0.2,1.9,1.3,3
		c5.8,3.8,11.7,7.2,17.7,10.5c18.1,9.6,36.9,17.2,56.7,22.7c101.8,28.1,216.5,7.5,293-68.5c60-59.6,81.1-141.9,81.1-224.3
		c0-3.2,3.8-5,6.1-6.7c15.6-11.7,28.8-25.8,40.5-41.5c2.6-3.5,3.3-6.7,3.3-7.9c0-0.2,0-0.4,0-0.4C500,92.6,499.4,93,497.3,93.9z"/>
	<path id="XMLID_399_" class="st1" d="M148,453.5C190.2,453.5,150,453.5,148,453.5C153.6,453.5,147.8,453.5,148,453.5z"/>
	<path id="XMLID_400_" class="st1" d="M148,453.5C147.4,453.5,139.8,453.5,148,453.5C148,453.5,146.7,453.5,148,453.5z"/>
	<path id="XMLID_401_" class="st1" d="M164.8,453.9C164.8,453.1,173.6,453.9,164.8,453.9C164.8,453.5,165.9,453.9,164.8,453.9z"/>
	<path id="XMLID_402_" class="st1" d="M341.1,45.3c-0.5,0.4-1.3,0.4-2.1,0C339.8,45.3,340.5,45.3,341.1,45.3z"/>
</g>
</svg>
