<?xml version="1.0" encoding="utf-8"?>
<!-- Generator: Adobe Illustrator 26.0.2, SVG Export Plug-In . SVG Version: 6.00 Build 0)  -->
<svg version="1.1" id="Calque_1" xmlns="http://www.w3.org/2000/svg" xmlns:xlink="http://www.w3.org/1999/xlink" x="0px" y="0px"
	 viewBox="0 0 500 500" style="enable-background:new 0 0 500 500;" xml:space="preserve">
<style type="text/css">
	.st0{display:none;}
	.st1{display:inline;fill:#13100F;}
	.st2{display:inline;}
	.st3{clip-path:url(#SVGID_00000155125002658523171440000015970109788168329369_);}
	.st4{fill:none;stroke:#34312E;stroke-width:4.8961;stroke-linecap:round;stroke-miterlimit:10;}
	.st5{fill:none;stroke:#34312E;stroke-width:1.632;stroke-miterlimit:10;}
	.st6{fill:#F1895C;}
	.st7{display:inline;fill:#7E7F82;}
	.st8{fill:#34312E;}
</style>
<g id="Calque_4">
</g>
<g id="Calque_3" class="st0">
	<circle class="st1" cx="249.6" cy="250.2" r="194.3"/>
</g>
<g id="Calque_5" class="st0">
	<g class="st2">
		<g>
			<g>
				<defs>
					<circle id="SVGID_1_" cx="249.6" cy="250.2" r="194.3"/>
				</defs>
				<clipPath id="SVGID_00000078737667841051854330000010331133858585235126_">
					<use xlink:href="#SVGID_1_"  style="overflow:visible;"/>
				</clipPath>
				<g style="clip-path:url(#SVGID_00000078737667841051854330000010331133858585235126_);">
					<path class="st4" d="M394.6,161.8c7.7-7.8,17.9,5.4,9.4,13.4c-4.7,4.4-18.3,4.6-23.2-8.6c-8.3-22.1,18.1-37.8,33.3-21.1
						C474,211.7,384.8,367,250.4,328c-88.4-25.7-136.5,9.3-162.1,48.1"/>
					<g>
						<path class="st5" d="M93,384c27.2-35.6,73.7-66.8,155.2-43.9c135.5,38,198.1-77.2,193.4-141.7"/>
						<path class="st5" d="M113.4,396.8c26.3-30.7,67.5-54.3,137-35.5c124.3,33.6,192-71.8,194.1-133.6"/>
						<path class="st5" d="M133.8,409.6c25.3-25.8,61.2-41.9,118.7-27c113.1,29.3,185.9-66.4,194.8-125.5"/>
						<path class="st5" d="M154.2,422.5c24.4-20.8,54.9-29.6,100.4-18.6c102,24.5,170.5-56.4,186.2-112.9"/>
						<path class="st5" d="M174.6,435.3c23.4-15.9,48.7-17.4,82.2-10.1c91,19.7,155.2-46.5,177.7-100.3"/>
					</g>
				</g>
			</g>
		</g>
	</g>
</g>
<g id="Calque_1_00000164506125436261451820000009570444636575016335_">
	<g>
		<g>
			<path class="st6" d="M396,122.4c-5.3,4.8-9.3-28.1-5.3-45.1c2-8.2,0.5-19.3,0.5-19.3c-2.5-1.5-6.4,9.5-7.3,12.1
				c-1,3.1-23.8,67-23.8,124.7c0,51.9-27.9,107-105.4,109.3V55.5c3.1,8.7,7.7,13,14.8,12.2c3.2-0.4,5.4-2.4,5.4-5.4
				s-4.2-8.2-5.4-5.4c-2.7,5.9-14.2-7.8-14.2-36.6c0-14.8-5.8-20.3-5.8-20.3s-5.8,5.4-5.8,20.3c0,28.8-11.5,42.5-14.2,36.6
				c-1.2-2.7-5.4,2.4-5.4,5.4s2.2,5.1,5.4,5.4c6.8,0.8,11.3-3.2,14.4-11.1v247.6c-77.2-2.5-105-57.6-105-109.3
				c0-57.7-22.7-121.6-23.8-124.7c-0.9-2.7-4.8-13.6-7.3-12.2c0,0-1.4,11,0.6,19.3c4,17,0,50-5.3,45.1c-2.2-2-4.5,3.9-3.6,6.8
				c0.9,2.9,3.9,4.5,6.8,3.6c6.3-1.9,9.4-9.5,10.8-19.2c5.6,24.7,10.9,54.9,10.9,81.3c0,47.4,23.2,101.4,85.5,116.3
				C177,325.5,151,360.9,151,402.4c0,54.1,44,98.1,98.1,98.1c26.2,0,50.9-10.2,69.4-28.7c2.1-2.1,1.4-10.3-2.8-12.3
				c-2.7-1.3-13.7-2.7-11.5,4.9c2.8,9.9-26.6,23-49.6,24.9V315c85.5-2.4,116.2-65.7,116.2-120.2c0-26.4,5.3-56.6,11-81.3
				c1.3,9.7,4.5,17.3,10.8,19.2c2.9,0.9,5.9-0.7,6.8-3.6C400.4,126.3,398.2,120.4,396,122.4z M162.1,402.3
				c0-46.3,36.3-83.9,81.9-86.7V489C198.4,486.2,162.1,448.6,162.1,402.3z"/>
			<path class="st6" d="M221.1,175.7l-16.7,44.5l-12.4-32l-11.9,32l-17.3-44.6c-1.7-4.4-3.4-5.1-7.5-5.5v-0.6h19.4v0.6
				c-3.4,0.3-5.1,1.5-5.1,3.4c0,2,0.6,4,1.3,5.6l11,28.2l8.6-23.1l-3.9-9.9c-1.3-3.3-3.7-4.1-6.6-4.2v-0.6h18.9v0.6
				c-3.6,0.2-5.3,1-5.3,3.4c0,1.8,0.9,4,1.5,5.6l11,28.3l10.7-28.4c0.5-1.4,1.1-4.1,1.1-5.4c0-2.3-1.4-3.4-5.2-3.6v-0.6H227v0.6
				C223.7,170.4,222.6,171.8,221.1,175.7z"/>
			<path class="st6" d="M318.8,218.5l-18.3-22.9h-4.6v14.6c0,6.5,1.9,7.4,6.9,7.7v0.6h-20.3V218c5-0.4,6.9-1.2,6.9-7.7v-32.7
				c0-6.5-2.1-7-7.1-7.4v-0.6h18.8c12.8,0,19.8,6.8,19.8,13.6c0,6.9-5.3,10.4-13.1,11.6l11.8,14.6c5.1,6.4,6.4,7.8,11.6,8.6v0.6
				L318.8,218.5L318.8,218.5z M299.9,171.6c-1.7,0-3.1,0.2-4.1,0.6v20.7c1.1,0.3,2.6,0.6,5.4,0.6c6.2,0,12.6-3.1,12.6-10.6
				C313.9,176.1,307.8,171.6,299.9,171.6z"/>
		</g>
	</g>
</g>
<g id="Calque_2_00000133513545865057281000000017941192188226057656_" class="st0">
	<circle class="st7" cx="467" cy="250.2" r="23.1"/>
	<circle class="st7" cx="32.2" cy="250.2" r="23.1"/>
	<circle class="st7" cx="249.6" cy="467.6" r="23.1"/>
	<circle class="st7" cx="249.6" cy="32.8" r="23.1"/>
	<g class="st2">
		<path class="st8" d="M276,32.8c0,1.7-0.2,3.3-0.5,4.9c97.4,11.8,174.8,89.2,186.6,186.6c1.6-0.3,3.2-0.5,4.9-0.5
			c0.6,0,1.1,0.1,1.6,0.2c-12-100.8-92.1-180.9-192.9-192.9C275.9,31.7,276,32.2,276,32.8z"/>
		<path class="st8" d="M32.2,223.8c1.7,0,3.3,0.2,4.9,0.5c11.8-97.4,89.2-174.8,186.6-186.6c-0.3-1.6-0.5-3.2-0.5-4.9
			c0-0.6,0.1-1.1,0.2-1.6C122.6,43.1,42.5,123.2,30.5,224C31.1,223.9,31.6,223.8,32.2,223.8z"/>
		<path class="st8" d="M467,276.6c-1.7,0-3.3-0.2-4.9-0.5c-11.8,97.4-89.2,174.8-186.6,186.6c0.3,1.6,0.5,3.2,0.5,4.9
			c0,0.6-0.1,1.1-0.2,1.6c100.8-12,180.9-92.1,192.9-192.9C468.1,276.5,467.6,276.6,467,276.6z"/>
		<path class="st8" d="M223.2,467.6c0-1.7,0.2-3.3,0.5-4.9C126.3,450.9,48.9,373.5,37,276.1c-1.6,0.3-3.2,0.5-4.9,0.5
			c-0.6,0-1.1-0.1-1.6-0.2c12,100.8,92.1,180.9,192.9,192.9C223.3,468.7,223.2,468.2,223.2,467.6z"/>
	</g>
</g>
</svg>
