<?xml version="1.0" encoding="utf-8"?>
<!-- Generator: Adobe Illustrator 26.0.2, SVG Export Plug-In . SVG Version: 6.00 Build 0)  -->
<svg version="1.1" xmlns="http://www.w3.org/2000/svg" xmlns:xlink="http://www.w3.org/1999/xlink" x="0px" y="0px"
	 viewBox="0 0 500 500" style="enable-background:new 0 0 500 500;" xml:space="preserve">
<style type="text/css">
	.st0{display:none;}
	.st1{display:inline;fill:#13100F;}
	.st2{display:inline;}
	.st3{clip-path:url(#SVGID_00000150088815729215466710000005006995173295985054_);}
	.st4{fill:none;stroke:#34312E;stroke-width:4.8961;stroke-linecap:round;stroke-miterlimit:10;}
	.st5{fill:none;stroke:#34312E;stroke-width:1.632;stroke-miterlimit:10;}
	.st6{fill:#D9C4B2;}
	.st7{display:inline;fill:#7E7F82;}
	.st8{fill:#34312E;}
</style>
<g id="Calque_4">
</g>
<g id="Calque_3" class="st0">
	<circle class="st1" cx="249.6" cy="250.19" r="194.3"/>
</g>
<g id="Calque_5" class="st0">
	<g class="st2">
		<defs>
			<circle id="SVGID_1_" cx="249.6" cy="250.19" r="194.3"/>
		</defs>
		<clipPath id="SVGID_00000137844800085061175910000011911576541861897615_">
			<use xlink:href="#SVGID_1_"  style="overflow:visible;"/>
		</clipPath>
		<g style="clip-path:url(#SVGID_00000137844800085061175910000011911576541861897615_);">
			<path class="st4" d="M394.58,161.77c7.7-7.81,17.92,5.45,9.35,13.42c-4.73,4.4-18.26,4.62-23.22-8.58
				c-8.28-22.09,18.1-37.79,33.26-21.05c59.93,66.16-29.27,221.52-163.72,182.5c-88.45-25.67-136.47,9.29-162.12,48.11"/>
			<g>
				<path class="st5" d="M92.99,383.98c27.24-35.62,73.72-66.78,155.24-43.9c135.47,38.03,198.15-77.24,193.4-141.71"/>
				<path class="st5" d="M113.4,396.81c26.28-30.7,67.45-54.33,136.97-35.45C374.66,395,442.38,289.56,444.45,227.78"/>
				<path class="st5" d="M133.81,409.64c25.32-25.77,61.18-41.88,118.71-27c113.11,29.26,185.87-66.35,194.76-125.45"/>
				<path class="st5" d="M154.21,422.48c24.36-20.84,54.95-29.63,100.44-18.56c102.03,24.5,170.52-56.44,186.23-112.86"/>
				<path class="st5" d="M174.62,435.31c23.4-15.91,48.73-17.37,82.17-10.11c90.95,19.74,155.17-46.54,177.7-100.28"/>
			</g>
		</g>
	</g>
</g>
<g id="Calque_1">
	<g>
		<g>
			<path class="st6" d="M395.95,122.41c-5.28,4.84-9.28-28.13-5.26-45.13c1.95-8.25,0.55-19.27,0.55-19.27
				c-2.5-1.47-6.43,9.47-7.31,12.15c-1.01,3.06-23.75,66.98-23.75,124.68c0,51.85-27.9,107.03-105.35,109.34V55.53
				c3.06,8.68,7.68,12.99,14.78,12.18c3.19-0.36,5.42-2.42,5.42-5.42c0-3-4.18-8.15-5.42-5.42c-2.71,5.94-14.23-7.81-14.23-36.6
				C255.38,5.45,249.6,0,249.6,0s-5.78,5.45-5.78,20.27c0,28.78-11.52,42.54-14.23,36.6c-1.24-2.73-5.42,2.42-5.42,5.42
				c0,3,2.23,5.06,5.42,5.42c6.8,0.77,11.33-3.16,14.4-11.11v247.56c-77.16-2.49-104.97-57.57-104.97-109.33
				c0-57.7-22.74-121.62-23.75-124.68c-0.88-2.68-4.81-13.62-7.31-12.15c0,0-1.4,11.03,0.55,19.27c4.02,16.99,0.02,49.96-5.26,45.13
				c-2.21-2.02-4.46,3.93-3.57,6.79c0.89,2.86,3.89,4.47,6.79,3.57c6.26-1.94,9.42-9.51,10.77-19.24
				c5.63,24.66,10.95,54.9,10.95,81.31c0,47.38,23.23,101.4,85.53,116.3c-36.49,14.31-62.48,49.67-62.48,91.16
				c0,54.09,44.01,98.09,98.1,98.09c26.21,0,50.86-10.21,69.37-28.73c2.12-2.12,1.4-10.3-2.8-12.31c-2.73-1.3-13.7-2.74-11.51,4.93
				c2.83,9.89-26.65,22.96-49.55,24.88V315.01c85.53-2.42,116.19-65.71,116.19-120.18c0-26.4,5.31-56.65,10.95-81.31
				c1.34,9.73,4.51,17.3,10.77,19.24c2.9,0.9,5.9-0.71,6.79-3.57C400.41,126.33,398.16,120.38,395.95,122.41z M162.07,402.29
				c0-46.29,36.33-83.9,81.92-86.72V489C198.4,486.18,162.07,448.57,162.07,402.29z"/>
			<path class="st6" d="M221.06,175.71l-16.66,44.54l-12.38-31.96l-11.94,31.96l-17.3-44.61c-1.72-4.37-3.43-5.08-7.51-5.51v-0.57
				h19.38v0.57c-3.36,0.29-5.07,1.5-5.07,3.43c0,2.01,0.64,4,1.28,5.57l11.01,28.24l8.58-23.09l-3.86-9.94
				c-1.28-3.28-3.72-4.08-6.58-4.22v-0.57h18.87v0.57c-3.57,0.22-5.28,1-5.28,3.43c0,1.78,0.86,4,1.49,5.57l11.01,28.31l10.73-28.38
				c0.5-1.36,1.14-4.07,1.14-5.36c0-2.29-1.42-3.35-5.21-3.57v-0.57h14.23v0.57C223.7,170.42,222.55,171.78,221.06,175.71z"/>
			<path class="st6" d="M318.82,218.54l-18.31-22.95h-4.65v14.65c0,6.52,1.93,7.37,6.93,7.72v0.58h-20.31v-0.58
				c5-0.35,6.93-1.21,6.93-7.72V177.5c0-6.51-2.08-7-7.08-7.36v-0.57h18.81c12.79,0,19.8,6.79,19.8,13.59
				c0,6.93-5.28,10.36-13.08,11.58l11.8,14.58c5.15,6.36,6.44,7.79,11.58,8.65v0.58H318.82z M299.93,171.57
				c-1.71,0-3.07,0.21-4.07,0.64v20.73c1.07,0.3,2.65,0.58,5.43,0.58c6.22,0,12.58-3.14,12.58-10.65
				C313.88,176.13,307.8,171.57,299.93,171.57z"/>
		</g>
	</g>
</g>
<g id="Calque_2" class="st0">
	<circle class="st7" cx="467.03" cy="250.19" r="23.13"/>
	<circle class="st7" cx="32.16" cy="250.19" r="23.13"/>
	<circle class="st7" cx="249.6" cy="467.63" r="23.13"/>
	<circle class="st7" cx="249.6" cy="32.76" r="23.13"/>
	<g class="st2">
		<path class="st8" d="M275.99,32.76c0,1.67-0.19,3.3-0.49,4.89c97.42,11.8,174.84,89.23,186.64,186.65
			c1.59-0.3,3.22-0.49,4.89-0.49c0.56,0,1.09,0.13,1.65,0.17C456.69,123.2,376.58,43.1,275.83,31.1
			C275.86,31.66,275.99,32.19,275.99,32.76z"/>
		<path class="st8" d="M32.16,223.8c1.67,0,3.3,0.19,4.89,0.49c11.8-97.42,89.23-174.84,186.65-186.65
			c-0.3-1.59-0.49-3.21-0.49-4.89c0-0.57,0.13-1.09,0.17-1.65C122.61,43.1,42.5,123.2,30.51,223.96
			C31.07,223.93,31.6,223.8,32.16,223.8z"/>
		<path class="st8" d="M467.03,276.59c-1.67,0-3.3-0.19-4.89-0.49c-11.8,97.42-89.23,174.84-186.64,186.64
			c0.3,1.59,0.49,3.22,0.49,4.89c0,0.56-0.13,1.09-0.17,1.65c100.76-11.99,180.86-92.1,192.85-192.85
			C468.13,276.46,467.6,276.59,467.03,276.59z"/>
		<path class="st8" d="M223.2,467.63c0-1.67,0.19-3.3,0.49-4.89c-97.42-11.8-174.84-89.23-186.65-186.64
			c-1.59,0.3-3.21,0.49-4.89,0.49c-0.57,0-1.09-0.13-1.65-0.17c11.99,100.76,92.1,180.86,192.86,192.85
			C223.33,468.72,223.2,468.19,223.2,467.63z"/>
	</g>
</g>
</svg>
