<?xml version="1.0" encoding="utf-8"?>
<!-- Generator: Adobe Illustrator 26.0.2, SVG Export Plug-In . SVG Version: 6.00 Build 0)  -->
<svg version="1.1" id="behance" xmlns="http://www.w3.org/2000/svg" xmlns:xlink="http://www.w3.org/1999/xlink" x="0px" y="0px"
	 viewBox="0 0 500 500" style="enable-background:new 0 0 500 500;" xml:space="preserve">
<style type="text/css">
	.st0{fill:#C5C6C6;}
</style>
<g>
	<path class="st0" d="M326.7,230.3c-8.7,0-15.4,2.5-20.2,7.4c-4.8,4.9-7.8,11.6-9,20h58.3c-0.6-9-3.6-15.8-9-20.5
		C341.4,232.7,334.7,230.3,326.7,230.3z"/>
	<path class="st0" d="M204.6,261.2c-4.2-1.9-10-2.9-17.5-3H144v46.7h42.5c7.6,0,13.5-1,17.7-3.1c7.7-3.8,11.5-11.1,11.5-21.9
		C215.7,270.9,212,264.6,204.6,261.2z"/>
	<path class="st0" d="M205,224.9c4.7-2.9,7.1-8,7.1-15.4c0-8.2-3.1-13.5-9.4-16.1c-5.4-1.8-12.3-2.7-20.7-2.7H144v38.6h42.5
		C194.1,229.3,200.3,227.8,205,224.9z"/>
	<path class="st0" d="M250,0C111.9,0,0,111.9,0,250c0,138.1,111.9,250,250,250c138.1,0,250-111.9,250-250C500,111.9,388.1,0,250,0z
		 M286.4,170.3h76.1V188h-76.1V170.3z M244.9,310.4c-3.3,5.5-7.5,10-12.4,13.8c-5.6,4.3-12.2,7.2-19.8,8.8
		c-7.6,1.6-15.9,2.4-24.7,2.4h-78.9V160.3h84.6c21.3,0.3,36.5,6.5,45.4,18.6c5.4,7.4,8,16.4,8,26.7c0,10.7-2.7,19.3-8.1,25.8
		c-3,3.6-7.5,7-13.4,10c8.9,3.3,15.7,8.4,20.2,15.4c4.5,7,6.8,15.6,6.8,25.6C252.6,292.9,250.1,302.1,244.9,310.4z M310.2,307.4
		c5.2,3.2,11.4,4.9,18.7,4.9c7.7,0,14-2,18.8-5.9c2.6-2.1,5-5.1,7-8.9h34.6c-0.9,7.7-5.1,15.5-12.6,23.4
		c-11.6,12.6-27.8,18.9-48.7,18.9c-17.2,0-32.4-5.3-45.6-15.9c-13.2-10.6-19.8-27.9-19.8-51.8c0-22.4,5.9-39.6,17.8-51.6
		c11.9-12,27.3-17.9,46.3-17.9c11.3,0,21.4,2,30.4,6.1c9,4,16.5,10.4,22.4,19.2c5.3,7.7,8.7,16.6,10.3,26.8
		c0.9,5.9,1.3,14.5,1.1,25.7h-94.3C297.2,293.1,301.7,302.2,310.2,307.4z"/>
</g>
</svg>
