<?xml version="1.0" encoding="utf-8"?>
<!-- Generator: Adobe Illustrator 26.0.2, SVG Export Plug-In . SVG Version: 6.00 Build 0)  -->
<svg version="1.1" id="instagram" xmlns="http://www.w3.org/2000/svg" xmlns:xlink="http://www.w3.org/1999/xlink" x="0px" y="0px"
	 viewBox="0 0 500 500" style="enable-background:new 0 0 500 500;" xml:space="preserve">
<style type="text/css">
	.st0{fill:#C5C6C6;}
</style>
<g>
	<path class="st0" d="M356.9,169.2c-2.5-6.4-5.5-11-10.3-15.8c-4.8-4.8-9.4-7.8-15.8-10.3c-4.8-1.9-12.1-4.1-25.5-4.7
		c-14.5-0.7-18.8-0.8-55.4-0.8c-36.6,0-40.9,0.1-55.4,0.8c-13.4,0.6-20.6,2.8-25.5,4.7c-6.4,2.5-11,5.5-15.8,10.3
		c-4.8,4.8-7.8,9.4-10.3,15.8c-1.9,4.8-4.1,12.1-4.7,25.5c-0.7,14.5-0.8,18.8-0.8,55.4c0,36.6,0.1,40.9,0.8,55.4
		c0.6,13.4,2.8,20.6,4.7,25.5c2.5,6.4,5.5,11,10.3,15.8c4.8,4.8,9.4,7.8,15.8,10.3c4.8,1.9,12.1,4.1,25.5,4.7
		c14.5,0.7,18.8,0.8,55.4,0.8s40.9-0.1,55.4-0.8c13.4-0.6,20.6-2.8,25.5-4.7c6.4-2.5,11-5.5,15.8-10.3c4.8-4.8,7.8-9.4,10.3-15.8
		c1.9-4.8,4.1-12.1,4.7-25.5c0.7-14.5,0.8-18.8,0.8-55.4c0-36.6-0.1-40.9-0.8-55.4C361,181.2,358.7,174,356.9,169.2z M250,320.4
		c-38.9,0-70.4-31.5-70.4-70.4c0-38.9,31.5-70.4,70.4-70.4c38.9,0,70.4,31.5,70.4,70.4C320.4,288.9,288.9,320.4,250,320.4z
		 M323.2,193.3c-9.1,0-16.5-7.4-16.5-16.5s7.4-16.4,16.5-16.4c9.1,0,16.4,7.4,16.4,16.4S332.3,193.3,323.2,193.3z"/>
	<path class="st0" d="M250,204.3c-25.2,0-45.7,20.5-45.7,45.7c0,25.2,20.5,45.7,45.7,45.7s45.7-20.5,45.7-45.7
		C295.7,224.8,275.2,204.3,250,204.3z"/>
	<path class="st0" d="M250,0C111.9,0,0,111.9,0,250c0,138.1,111.9,250,250,250c138.1,0,250-111.9,250-250C500,111.9,388.1,0,250,0z
		 M386.3,306.5c-0.7,14.6-3,24.6-6.4,33.3c-3.5,9-8.2,16.7-15.8,24.3c-7.6,7.6-15.3,12.3-24.3,15.8c-8.7,3.4-18.7,5.7-33.3,6.4
		c-14.6,0.7-19.3,0.8-56.5,0.8s-41.9-0.2-56.5-0.8c-14.6-0.7-24.6-3-33.3-6.4c-9-3.5-16.7-8.2-24.3-15.8
		c-7.6-7.6-12.3-15.3-15.8-24.3c-3.4-8.7-5.7-18.7-6.4-33.3c-0.7-14.6-0.8-19.3-0.8-56.5s0.2-41.9,0.8-56.5
		c0.7-14.6,3-24.6,6.4-33.3c3.5-9,8.2-16.7,15.8-24.3s15.3-12.3,24.3-15.8c8.7-3.4,18.7-5.7,33.3-6.4c14.6-0.7,19.3-0.8,56.5-0.8
		s41.9,0.2,56.5,0.8c14.6,0.7,24.6,3,33.3,6.4c9,3.5,16.7,8.2,24.3,15.8c7.6,7.6,12.3,15.3,15.8,24.3c3.4,8.7,5.7,18.7,6.4,33.3
		c0.7,14.6,0.8,19.3,0.8,56.5S386.9,291.9,386.3,306.5z"/>
</g>
</svg>
