<?xml version="1.0" encoding="utf-8"?>
<!-- Generator: Adobe Illustrator 26.0.2, SVG Export Plug-In . SVG Version: 6.00 Build 0)  -->
<svg version="1.1" id="linkedin" xmlns="http://www.w3.org/2000/svg" xmlns:xlink="http://www.w3.org/1999/xlink" x="0px" y="0px"
	 viewBox="0 0 500 500" style="enable-background:new 0 0 500 500;" xml:space="preserve">
<style type="text/css">
	.st0{fill:#C5C6C6;}
</style>
<path class="st0" d="M250,0C111.9,0,0,111.9,0,250c0,138.1,111.9,250,250,250c138.1,0,250-111.9,250-250C500,111.9,388.1,0,250,0z
	 M188.4,361.4h-51.7V194.3h51.7V361.4z M162.3,172.4c-16.9,0-30.6-13.8-30.6-30.9s13.7-30.8,30.6-30.8c16.9,0,30.6,13.8,30.6,30.8
	S179.2,172.4,162.3,172.4z M382.3,361.4h-51.5c0,0,0-63.7,0-87.7c0-24.1-9.1-37.5-28.2-37.5c-20.7,0-31.5,14-31.5,37.5
	c0,25.8,0,87.7,0,87.7h-49.6V194.3h49.6v22.5c0,0,14.9-27.6,50.4-27.6c35.4,0,60.8,21.6,60.8,66.4
	C382.3,300.4,382.3,361.4,382.3,361.4z"/>
</svg>
