<?xml version="1.0" encoding="utf-8"?>
<!-- Generator: Adobe Illustrator 26.0.2, SVG Export Plug-In . SVG Version: 6.00 Build 0)  -->
<svg version="1.1" id="twitter" xmlns="http://www.w3.org/2000/svg" xmlns:xlink="http://www.w3.org/1999/xlink" x="0px" y="0px"
	 viewBox="0 0 500 500" style="enable-background:new 0 0 500 500;" xml:space="preserve">
<style type="text/css">
	.st0{fill:#C5C6C6;}
</style>
<path class="st0" d="M250,0C111.9,0,0,111.9,0,250c0,138.1,111.9,250,250,250c138.1,0,250-111.9,250-250C500,111.9,388.1,0,250,0z
	 M355.9,195.7c3.5,76.9-53.9,162.6-155.4,162.6c-30.9,0-59.6-9-83.8-24.6c29,3.4,57.9-4.6,80.9-22.6c-23.9-0.4-44.1-16.2-51.1-38
	c8.6,1.6,17,1.2,24.7-0.9c-26.3-5.3-44.4-29-43.8-54.3c7.4,4.1,15.8,6.6,24.8,6.8c-24.3-16.3-31.2-48.4-16.9-73
	c27,33.1,67.2,54.8,112.6,57.1c-8-34.2,18-67.1,53.2-67.1c15.7,0,29.9,6.6,39.9,17.3c12.4-2.5,24.1-7,34.7-13.3
	c-4.1,12.8-12.7,23.5-24,30.2c11-1.3,21.6-4.3,31.4-8.6C375.9,178.3,366.6,188,355.9,195.7z"/>
</svg>
