<?xml version="1.0" encoding="utf-8"?>
<!-- Generator: Adobe Illustrator 26.0.2, SVG Export Plug-In . SVG Version: 6.00 Build 0)  -->
<svg version="1.1" id="twitch" xmlns="http://www.w3.org/2000/svg" xmlns:xlink="http://www.w3.org/1999/xlink" x="0px" y="0px"
	 viewBox="0 0 500 500" style="enable-background:new 0 0 500 500;" xml:space="preserve">
<style type="text/css">
	.st0{fill:#C5C6C6;}
</style>
<g>
	<path class="st0" d="M231.9,343.3l41.5-41.5h47.7l46.6-46.6V124.3H178.6v177.2h53.3V343.3z M309.4,164.5h22.9V237h-22.9V164.5z
		 M243.7,164.5h22.9V237h-22.9V164.5z"/>
	<path class="st0" d="M250,0C111.9,0,0,111.9,0,250s111.9,250,250,250c138.1,0,250-111.9,250-250S388.1,0,250,0z M392.5,266.8
		L286.1,373.2h-48.5l-59,59v-58.6h-71.1V158.2l58.1-58.1h226.9V266.8z"/>
</g>
</svg>
